<svg width="110" height="47" viewBox="0 0 110 47" fill="none" xmlns="http://www.w3.org/2000/svg">
<path fill-rule="evenodd" clip-rule="evenodd" d="M19.5 4.2243C9.40661 4.2243 1.2243 12.4066 1.2243 22.5C1.2243 32.5934 9.40661 40.7757 19.5 40.7757C29.5934 40.7757 37.7757 32.5934 37.7757 22.5C37.7757 12.4066 29.5934 4.2243 19.5 4.2243ZM1 22.5C1 12.2827 9.28273 4 19.5 4C29.7173 4 38 12.2827 38 22.5C38 32.7173 29.7173 41 19.5 41C9.28273 41 1 32.7173 1 22.5Z" fill="#474752" stroke="#474752" stroke-width="0.547561"/>
<path fill-rule="evenodd" clip-rule="evenodd" d="M20 36.0001C27.1797 36.0001 33 30.1798 33 23.0001C33 15.8204 27.1797 10.0001 20 10.0001C12.8203 10.0001 7 15.8204 7 23.0001C7 30.1798 12.8203 36.0001 20 36.0001ZM19.9737 12.8699L10.4258 17.2881H19.9737L29.5216 17.288L19.9737 12.8699ZM19.9737 17.4584H11.5357V17.7467H19.9737L28.4117 17.7466V17.4584L19.9737 17.4584ZM11.9405 17.9301H19.9737L28.0069 17.9301V18.8735L19.9737 18.8735H11.9405V17.9301ZM13.6558 18.0207C13.5476 18.0207 13.4175 18.1189 13.4175 18.3485C13.4175 18.5782 13.5476 18.6764 13.6558 18.6764C13.7639 18.6764 13.8941 18.5782 13.8941 18.3485C13.8941 18.1189 13.7639 18.0207 13.6558 18.0207ZM17.8189 18.0207C17.7107 18.0207 17.5806 18.1189 17.5806 18.3485C17.5806 18.5782 17.7107 18.6764 17.8189 18.6764C17.9271 18.6764 18.0572 18.5782 18.0572 18.3485C18.0572 18.1189 17.9271 18.0207 17.8189 18.0207ZM21.9816 18.0207C21.8735 18.0207 21.7434 18.1189 21.7434 18.3485C21.7434 18.5782 21.8735 18.6764 21.9816 18.6764C22.0898 18.6764 22.2199 18.5782 22.2199 18.3485C22.2199 18.1189 22.0898 18.0207 21.9816 18.0207ZM26.1524 18.0207C26.0443 18.0207 25.9141 18.1189 25.9141 18.3485C25.9141 18.5782 26.0443 18.6764 26.1524 18.6764C26.2606 18.6764 26.3907 18.5782 26.3907 18.3485C26.3907 18.1189 26.2606 18.0207 26.1524 18.0207ZM12.3743 27.9599V28.216H12.221V28.6409H15.0973V28.216H14.944V27.9599H14.5274C14.7524 27.9599 14.7339 27.7588 14.7339 27.7588V20.005H14.9002V19.6082H15.126V19.0948H12.2265V19.6082H12.4591V20.005H12.6309V27.7588C12.6309 27.7588 12.6241 27.9534 12.8375 27.9599H12.3743ZM13.4241 27.9599H12.8375C13.0625 27.9599 13.044 27.7588 13.044 27.7588V20.005C13.044 19.8933 13.2175 19.8915 13.2175 20.005V27.7588C13.2175 27.7588 13.1991 27.9599 13.4241 27.9599ZM13.984 27.9599H13.4241C13.6491 27.9599 13.6306 27.7588 13.6306 27.7588V20.005C13.6306 19.8933 13.7774 19.8915 13.7774 20.005V27.7588C13.7774 27.7588 13.7589 27.9599 13.984 27.9599ZM13.984 27.9599H14.5274C14.3023 27.9599 14.3208 27.7588 14.3208 27.7588V20.005C14.3208 19.8915 14.1905 19.8933 14.1905 20.005V27.7588C14.1905 27.7588 14.209 27.9599 13.984 27.9599ZM11.1796 29.1995V28.7017H28.6157V29.1995H11.1796ZM10.3826 29.3071V29.9803H29.3877V29.3071H10.3826ZM16.495 27.9599V28.216H16.3417V28.6409H19.218V28.216H19.0647V27.9599H18.6481C18.8731 27.9599 18.8546 27.7588 18.8546 27.7588V20.005H19.0209V19.6082H19.2467V19.0948H16.3472V19.6082H16.5798V20.005H16.7516V27.7588C16.7516 27.7588 16.7448 27.9534 16.9582 27.9599H16.495ZM17.5448 27.9599H16.9582C17.1832 27.9599 17.1647 27.7588 17.1647 27.7588V20.005C17.1647 19.8933 17.3382 19.8915 17.3382 20.005V27.7588C17.3382 27.7588 17.3198 27.9599 17.5448 27.9599ZM18.1047 27.9599H17.5448C17.7698 27.9599 17.7513 27.7588 17.7513 27.7588V20.005C17.7513 19.8933 17.8981 19.8915 17.8981 20.005V27.7588C17.8981 27.7588 17.8796 27.9599 18.1047 27.9599ZM18.1047 27.9599H18.6481C18.423 27.9599 18.4415 27.7588 18.4415 27.7588V20.005C18.4415 19.8915 18.3112 19.8933 18.3112 20.005V27.7588C18.3112 27.7588 18.3297 27.9599 18.1047 27.9599ZM20.6465 27.9599V28.216H20.4931V28.6409H23.3694V28.216H23.2161V27.9599H22.7995C23.0245 27.9599 23.006 27.7588 23.006 27.7588V20.005H23.1723V19.6082H23.3982V19.0948H20.4986V19.6082H20.7312V20.005H20.9031V27.7588C20.9031 27.7588 20.8962 27.9534 21.1096 27.9599H20.6465ZM21.6962 27.9599H21.1096C21.3346 27.9599 21.3161 27.7588 21.3161 27.7588V20.005C21.3161 19.8933 21.4897 19.8915 21.4897 20.005V27.7588C21.4897 27.7588 21.4712 27.9599 21.6962 27.9599ZM22.2561 27.9599H21.6962C21.9212 27.9599 21.9027 27.7588 21.9027 27.7588V20.005C21.9027 19.8933 22.0496 19.8915 22.0496 20.005V27.7588C22.0496 27.7588 22.0311 27.9599 22.2561 27.9599ZM22.2561 27.9599H22.7995C22.5745 27.9599 22.593 27.7588 22.593 27.7588V20.005C22.593 19.8915 22.4626 19.8933 22.4626 20.005V27.7588C22.4626 27.7588 22.4811 27.9599 22.2561 27.9599ZM24.7814 27.9599V28.216H24.6281V28.6409H27.5043V28.216H27.351V27.9599H26.9344C27.1594 27.9599 27.1409 27.7588 27.1409 27.7588V20.005H27.3072V19.6082H27.5331V19.0948H24.6335V19.6082H24.8661V20.005H25.038V27.7588C25.038 27.7588 25.0311 27.9534 25.2445 27.9599H24.7814ZM25.8311 27.9599H25.2445C25.4695 27.9599 25.451 27.7588 25.451 27.7588V20.005C25.451 19.8933 25.6246 19.8915 25.6246 20.005V27.7588C25.6246 27.7588 25.6061 27.9599 25.8311 27.9599ZM26.391 27.9599H25.8311C26.0562 27.9599 26.0377 27.7588 26.0377 27.7588V20.005C26.0377 19.8933 26.1845 19.8915 26.1845 20.005V27.7588C26.1845 27.7588 26.166 27.9599 26.391 27.9599ZM26.391 27.9599H26.9344C26.7094 27.9599 26.7279 27.7588 26.7279 27.7588V20.005C26.7279 19.8915 26.5975 19.8933 26.5975 20.005V27.7588C26.5975 27.7588 26.616 27.9599 26.391 27.9599Z" fill="#474752"/>
<path d="M20.3404 37.9587C20.3387 37.9102 20.375 37.8688 20.4232 37.8642L20.4685 37.86C20.5208 37.855 20.5664 37.8951 20.5685 37.9477L20.632 39.5716C20.634 39.6218 20.5953 39.6643 20.5453 39.6669L20.4915 39.6696C20.4405 39.6723 20.3972 39.6324 20.3954 39.5811L20.3404 37.9587Z" fill="#474752"/>
<path d="M20.4748 37.2369C20.4077 37.1942 20.3188 37.2109 20.2719 37.2752C20.2221 37.3433 20.2376 37.4392 20.3059 37.4884C20.3762 37.539 20.4745 37.5204 20.5214 37.4475C20.5669 37.3766 20.5458 37.2819 20.4748 37.2369Z" fill="#474752"/>
<path d="M24.6675 37.1806C24.6522 37.1345 24.6752 37.0844 24.7201 37.0663L24.7623 37.0492C24.811 37.0296 24.8661 37.0549 24.883 37.1048L25.4055 38.643C25.4216 38.6906 25.3967 38.7423 25.3495 38.7591L25.2987 38.7772C25.2505 38.7943 25.1977 38.7684 25.1814 38.7198L24.6675 37.1806Z" fill="#474752"/>
<path d="M24.5913 36.4502C24.5148 36.4286 24.4344 36.47 24.4076 36.5451C24.3793 36.6246 24.4213 36.7121 24.5009 36.7397C24.5826 36.768 24.6716 36.7221 24.6957 36.6388C24.7192 36.5578 24.6721 36.4731 24.5913 36.4502Z" fill="#474752"/>
<path d="M12.4728 35.7923L12.6265 35.6998C12.532 35.4993 12.2207 34.9319 11.5336 35.0068C10.8464 35.0816 10.4586 35.8307 10.4586 36.3756C10.4587 36.806 10.7487 37.2052 11.2207 37.3105C11.4974 37.3722 11.7254 37.2486 11.7916 37.2189L11.7345 37.0723C11.6673 37.0993 11.5466 37.2233 11.2207 37.1061C10.8134 36.9596 10.4923 36.4291 10.9074 35.7542C11.2992 35.1171 12.0836 34.9432 12.4728 35.7923Z" fill="#474752"/>
<path fill-rule="evenodd" clip-rule="evenodd" d="M12.6963 38.0941C12.876 38.2159 13.5036 38.4526 13.8609 37.6628C14.1655 36.9895 13.8633 36.6614 13.6215 36.5181L13.6194 36.5168C13.4077 36.4323 12.9434 36.3973 12.6265 36.8858C12.2201 37.5123 12.4728 37.9427 12.6963 38.0941ZM12.7592 38.013C12.3991 37.7617 12.6248 37.2493 12.8042 36.994C12.9172 36.8069 13.264 36.4535 13.5769 36.6243C13.8899 36.7951 13.823 37.2125 13.6803 37.5486C13.5375 37.8847 13.2094 38.327 12.7592 38.013Z" fill="#474752"/>
<path fill-rule="evenodd" clip-rule="evenodd" d="M26.7805 38.1108C26.9849 38.0382 27.5477 37.6725 27.1273 36.9146C26.7689 36.2686 26.3263 36.3174 26.0677 36.4272L26.0654 36.4282C25.8719 36.5488 25.5678 36.9026 25.7708 37.4487C26.0312 38.1491 26.5263 38.2011 26.7805 38.1108ZM26.7529 38.0118C26.3374 38.153 26.0611 37.6662 25.9632 37.3697C25.8804 37.1672 25.8035 36.6773 26.1264 36.5264C26.4493 36.3754 26.744 36.6775 26.9284 36.9925C27.1128 37.3075 27.2722 37.8352 26.7529 38.0118Z" fill="#474752"/>
<path d="M14.7731 37.1094L14.3531 38.7953L14.6025 38.8595L14.9483 37.4637C14.9951 37.4114 15.1544 37.3236 15.4175 37.3913C15.6805 37.4591 15.6586 37.7085 15.6148 37.8247L15.2979 39.0496L15.5255 39.1082L15.8749 37.7564C15.8788 37.7285 15.8789 37.6934 15.8729 37.6546C15.8686 37.6269 15.8612 37.5973 15.8498 37.5669C15.8015 37.4387 15.6818 37.297 15.4239 37.2306C15.2533 37.1867 15.058 37.2807 14.9817 37.3332L14.9827 37.1634L14.7731 37.1094Z" fill="#474752"/>
<path d="M16.2829 37.6268C16.546 37.6946 16.5241 37.944 16.4802 38.0602L16.1633 39.2851L16.391 39.3437L16.7404 37.9919C16.7587 37.8601 16.6941 37.5703 16.2894 37.4661C16.1207 37.4227 15.9279 37.5141 15.8498 37.5669C15.8612 37.5973 15.8686 37.6269 15.8729 37.6546C15.9504 37.6118 16.0882 37.5767 16.2829 37.6268Z" fill="#474752"/>
<path d="M17.4421 37.7691L17.3618 39.505L17.6189 39.5185L17.6835 38.0818C17.719 38.0212 17.8579 37.9036 18.1291 37.9179C18.4004 37.9322 18.4279 38.181 18.4078 38.3036L18.338 39.5672L18.5727 39.5796L18.6494 38.1852C18.6477 38.157 18.6409 38.1227 18.6274 38.0858C18.6178 38.0595 18.6047 38.0319 18.5875 38.0044C18.515 37.8883 18.3697 37.773 18.1038 37.759C17.928 37.7498 17.755 37.8806 17.6905 37.9472L17.6581 37.7805L17.4421 37.7691Z" fill="#474752"/>
<path d="M19.0239 37.9774C19.2951 37.9917 19.3227 38.2405 19.3026 38.3631L19.2328 39.6267L19.4675 39.6391L19.5441 38.2447C19.5361 38.1118 19.4159 37.8405 18.9986 37.8185C18.8247 37.8094 18.6537 37.9372 18.5875 38.0044C18.6047 38.0319 18.6178 38.0595 18.6274 38.0858C18.6949 38.0284 18.8232 37.9668 19.0239 37.9774Z" fill="#474752"/>
<path d="M27.3732 35.7997L28.3531 37.2438L28.5824 37.0917L27.7783 35.9144C27.7705 35.8397 27.8153 35.6503 28.0573 35.4898C28.2992 35.3293 28.4803 35.5254 28.5406 35.6435L29.2172 36.6707L29.4265 36.5318L28.673 35.3879C28.5821 35.2789 28.3073 35.1226 27.9351 35.3695C27.7782 35.4736 27.7124 35.6961 27.6992 35.7943L27.566 35.6718L27.3732 35.7997Z" fill="#474752"/>
<path d="M22.3765 37.8336L22.2612 37.9437C22.0251 37.7068 21.5255 37.8721 21.5584 38.1752C21.5848 38.4176 21.8055 38.458 21.9263 38.4617C22.1221 38.469 22.5061 38.6093 22.5412 38.9575C22.5852 39.3928 22.1953 39.536 21.8714 39.547C21.6122 39.5558 21.423 39.3854 21.3608 39.2991L21.4787 39.2206C21.5391 39.3033 21.5793 39.4053 21.9263 39.4053C22.3161 39.4053 22.3326 39.1577 22.3436 39.0567C22.3436 38.8914 22.2612 38.7151 21.9263 38.6765C21.4242 38.6187 21.3224 38.401 21.3114 38.2633C21.3004 38.1256 21.3388 37.795 21.7561 37.7069C22.0899 37.6363 22.3088 37.762 22.3765 37.8336Z" fill="#474752"/>
<path d="M23.9766 37.4205L23.8806 37.548C23.6094 37.3526 23.1431 37.597 23.2245 37.8906C23.2897 38.1256 23.514 38.1295 23.6338 38.1135C23.8282 38.0889 24.2298 38.1649 24.3207 38.5028C24.4344 38.9251 24.0728 39.1299 23.755 39.1934C23.5007 39.2443 23.2864 39.1069 23.2111 39.0319L23.3147 38.9352C23.3877 39.007 23.4438 39.1011 23.7862 39.0447C24.1709 38.9813 24.1472 38.7342 24.1417 38.6328C24.115 38.4697 24.0052 38.3091 23.6685 38.3255C23.1637 38.3501 23.0281 38.1519 22.995 38.0178C22.9619 37.8837 22.9464 37.5512 23.3439 37.3964C23.6619 37.2725 23.8982 37.3609 23.9766 37.4205Z" fill="#474752"/>
<path d="M15.8472 37.5687L15.8498 37.5669M15.8729 37.6546C15.9504 37.6118 16.0882 37.5767 16.2829 37.6268C16.546 37.6946 16.5241 37.944 16.4802 38.0602L16.1633 39.2851L16.391 39.3437L16.7404 37.9919C16.7587 37.8601 16.6941 37.5703 16.2894 37.4661C16.1207 37.4227 15.9279 37.5141 15.8498 37.5669M15.8729 37.6546C15.8789 37.6934 15.8788 37.7285 15.8749 37.7564L15.5255 39.1082L15.2979 39.0496L15.6148 37.8247C15.6586 37.7085 15.6805 37.4591 15.4175 37.3913C15.1544 37.3236 14.9951 37.4114 14.9483 37.4637L14.6025 38.8595L14.3531 38.7953L14.7731 37.1094L14.9827 37.1634L14.9817 37.3332C15.058 37.2807 15.2533 37.1867 15.4239 37.2306C15.6818 37.297 15.8015 37.4387 15.8498 37.5669M15.8729 37.6546C15.8686 37.6269 15.8612 37.5973 15.8498 37.5669M18.5853 38.0067L18.5875 38.0044M18.6274 38.0858C18.6949 38.0284 18.8232 37.9668 19.0239 37.9774C19.2951 37.9917 19.3227 38.2405 19.3026 38.3631L19.2328 39.6267L19.4675 39.6391L19.5441 38.2447C19.5361 38.1118 19.4159 37.8405 18.9986 37.8185C18.8247 37.8094 18.6537 37.9372 18.5875 38.0044M18.6274 38.0858C18.6409 38.1227 18.6477 38.157 18.6494 38.1852L18.5727 39.5796L18.338 39.5672L18.4078 38.3036C18.4279 38.181 18.4004 37.9322 18.1291 37.9179C17.8579 37.9036 17.719 38.0212 17.6835 38.0818L17.6189 39.5185L17.3618 39.505L17.4421 37.7691L17.6581 37.7805L17.6905 37.9472C17.755 37.8806 17.928 37.7498 18.1038 37.759C18.3697 37.773 18.515 37.8883 18.5875 38.0044M18.6274 38.0858C18.6178 38.0595 18.6047 38.0319 18.5875 38.0044M20.5214 37.4475C20.5669 37.3766 20.5458 37.2819 20.4748 37.2369C20.4077 37.1942 20.3188 37.2109 20.2719 37.2752C20.2221 37.3433 20.2376 37.4392 20.3059 37.4884C20.3762 37.539 20.4745 37.5204 20.5214 37.4475ZM20.4915 39.6696L20.5453 39.6669C20.5953 39.6643 20.634 39.6218 20.632 39.5716L20.5685 37.9477C20.5664 37.8951 20.5208 37.855 20.4685 37.86L20.4232 37.8642C20.375 37.8688 20.3387 37.9102 20.3404 37.9587L20.3954 39.5811C20.3972 39.6324 20.4405 39.6723 20.4915 39.6696ZM24.6957 36.6388C24.7192 36.5578 24.6721 36.4731 24.5913 36.4502C24.5148 36.4286 24.4344 36.47 24.4076 36.5451C24.3793 36.6246 24.4213 36.7121 24.5009 36.7397C24.5826 36.768 24.6716 36.7221 24.6957 36.6388ZM25.2987 38.7772L25.3495 38.7591C25.3967 38.7423 25.4217 38.6906 25.4055 38.643L24.883 37.1048C24.8661 37.0549 24.811 37.0296 24.7623 37.0492L24.7201 37.0663C24.6752 37.0844 24.6522 37.1345 24.6675 37.1806L25.1814 38.7198C25.1977 38.7684 25.2505 38.7943 25.2987 38.7772ZM12.4728 35.7923L12.6265 35.6998C12.532 35.4993 12.2207 34.9319 11.5336 35.0068C10.8464 35.0816 10.4586 35.8307 10.4586 36.3756C10.4587 36.806 10.7487 37.2052 11.2207 37.3105C11.4974 37.3722 11.7254 37.2486 11.7916 37.2189L11.7345 37.0723C11.6673 37.0993 11.5466 37.2233 11.2207 37.1061C10.8134 36.9596 10.4923 36.4291 10.9074 35.7542C11.2992 35.1171 12.0836 34.9432 12.4728 35.7923ZM12.8042 36.994C12.6248 37.2493 12.3991 37.7617 12.7592 38.013C13.2094 38.327 13.5375 37.8847 13.6803 37.5486C13.823 37.2125 13.8899 36.7951 13.5769 36.6243C13.264 36.4535 12.9172 36.8069 12.8042 36.994ZM12.6963 38.0941C12.876 38.2159 13.5036 38.4526 13.8609 37.6628C14.1655 36.9895 13.8633 36.6614 13.6215 36.5181L13.6194 36.5168C13.4077 36.4323 12.9434 36.3973 12.6265 36.8858C12.2201 37.5123 12.4728 37.9427 12.6963 38.0941ZM25.9632 37.3697C26.0611 37.6662 26.3374 38.153 26.7529 38.0118C27.2722 37.8352 27.1128 37.3075 26.9284 36.9925C26.744 36.6775 26.4493 36.3754 26.1264 36.5264C25.8035 36.6773 25.8804 37.1672 25.9632 37.3697ZM26.7805 38.1108C26.9849 38.0382 27.5477 37.6725 27.1273 36.9146C26.7689 36.2686 26.3263 36.3174 26.0677 36.4272L26.0654 36.4282C25.8719 36.5488 25.5678 36.9026 25.7708 37.4487C26.0312 38.1491 26.5263 38.2011 26.7805 38.1108ZM27.3732 35.7997L28.3531 37.2438L28.5824 37.0917L27.7783 35.9144C27.7705 35.8397 27.8153 35.6503 28.0573 35.4898C28.2992 35.3293 28.4803 35.5254 28.5406 35.6435L29.2172 36.6707L29.4265 36.5318L28.673 35.3879C28.5821 35.2789 28.3073 35.1226 27.9351 35.3695C27.7782 35.4736 27.7124 35.6961 27.6992 35.7943L27.566 35.6718L27.3732 35.7997ZM22.2612 37.9437L22.3765 37.8336C22.3088 37.762 22.0899 37.6363 21.7561 37.7069C21.3388 37.795 21.3004 38.1256 21.3114 38.2633C21.3224 38.401 21.4242 38.6187 21.9263 38.6765C22.2612 38.7151 22.3436 38.8914 22.3436 39.0567C22.3326 39.1577 22.3161 39.4053 21.9263 39.4053C21.5793 39.4053 21.5391 39.3033 21.4787 39.2206L21.3608 39.2991C21.423 39.3854 21.6122 39.5558 21.8714 39.547C22.1953 39.536 22.5852 39.3928 22.5412 38.9575C22.5061 38.6093 22.1221 38.469 21.9263 38.4617C21.8055 38.458 21.5848 38.4176 21.5584 38.1752C21.5255 37.8721 22.0251 37.7068 22.2612 37.9437ZM23.8806 37.548L23.9766 37.4205C23.8982 37.3609 23.6619 37.2725 23.3439 37.3964C22.9464 37.5512 22.9619 37.8837 22.995 38.0178C23.0281 38.1519 23.1637 38.3501 23.6685 38.3255C24.0052 38.3091 24.115 38.4697 24.1417 38.6328C24.1472 38.7342 24.1709 38.9813 23.7862 39.0447C23.4438 39.1011 23.3877 39.007 23.3147 38.9352L23.2111 39.0319C23.2864 39.1069 23.5007 39.2443 23.755 39.1934C24.0728 39.1299 24.4344 38.9251 24.3207 38.5028C24.2298 38.1649 23.8282 38.0889 23.6338 38.1135C23.514 38.1295 23.2897 38.1256 23.2245 37.8906C23.1431 37.597 23.6094 37.3526 23.8806 37.548Z" stroke="#474752" stroke-width="0.219024"/>
<path d="M10.7006 11.9426L9.31558 10.4084L8.88247 10.8252C8.84878 10.8576 8.79539 10.8568 8.76258 10.8235C8.72857 10.789 8.72993 10.733 8.76559 10.7001L9.81165 9.73647C9.84548 9.70531 9.89824 9.70822 9.92846 9.74291C9.95776 9.77656 9.95483 9.82755 9.92186 9.85759L9.48203 10.2584L10.8884 11.7698C10.9234 11.8074 10.9209 11.8664 10.883 11.901L10.8305 11.9489C10.7929 11.9832 10.7347 11.9804 10.7006 11.9426Z" fill="#474752"/>
<path d="M11.7727 11.0246L10.3829 8.9695C10.3549 8.92814 10.3648 8.87194 10.4053 8.84278L10.4384 8.81891C10.4798 8.78903 10.5376 8.79875 10.5671 8.84058L11.1317 9.64194C11.1541 9.56032 11.25 9.35179 11.455 9.1706C11.66 8.98941 11.9143 9.06736 11.9857 9.1706L12.8138 10.2675C12.8443 10.3078 12.8366 10.3652 12.7967 10.3962L12.7651 10.4207C12.7229 10.4534 12.662 10.4435 12.632 10.3993C12.4058 10.0659 12.0082 9.51789 11.9185 9.4053C11.8209 9.28287 11.7139 9.2792 11.6354 9.2792C11.5569 9.2792 11.4466 9.35732 11.3441 9.49443C11.2416 9.63155 11.2103 9.80804 11.2367 9.84272L11.9737 10.8812C12.0025 10.9219 11.994 10.9782 11.9543 11.0083L11.9043 11.0463C11.8623 11.0782 11.8023 11.0683 11.7727 11.0246Z" fill="#474752"/>
<path fill-rule="evenodd" clip-rule="evenodd" d="M13.3084 9.22325L14.1931 8.7615C14.2307 8.7419 14.2505 8.69892 14.236 8.65903C14.1178 8.33578 13.7159 7.94978 13.3084 8.12326C12.7621 8.35583 12.8317 8.90265 12.9973 9.32904C13.1628 9.75542 13.6225 9.95029 13.8929 9.89651C14.1429 9.84677 14.413 9.63322 14.4828 9.35384C14.4929 9.31341 14.4687 9.27272 14.4274 9.26842C14.4212 9.26778 14.4152 9.26731 14.4093 9.26699C14.3639 9.26452 14.3302 9.30432 14.3154 9.3474C14.2597 9.50956 14.0513 9.75325 13.715 9.70133C13.4798 9.62206 13.3028 9.33987 13.3084 9.22325ZM13.3646 8.28041C12.9591 8.44499 13.0912 8.89949 13.208 9.10617C13.4234 8.99569 13.8851 8.75701 14.0081 8.68615C13.8999 8.48042 13.6835 8.16612 13.3646 8.28041Z" fill="#474752"/>
<path d="M15.6698 6.73507L16.2223 8.95689L16.4918 8.88337L16.2223 7.88417L17.0348 7.65634L16.9899 7.5014L16.1903 7.7315L15.9541 6.83152L16.935 6.58644L16.8669 6.40162L15.6698 6.73507Z" fill="#474752"/>
<path d="M17.7606 6.83152L17.9868 6.79311L18.1921 8.60331L17.9554 8.63321L17.7606 6.83152Z" fill="#474752"/>
<path d="M17.8512 6.18437C17.7807 6.14666 17.6929 6.17 17.6506 6.23796C17.6058 6.30992 17.6284 6.4049 17.7006 6.4491C17.7747 6.49451 17.8719 6.46857 17.9135 6.39199C17.9538 6.31756 17.9257 6.22424 17.8512 6.18437Z" fill="#474752"/>
<path d="M18.9249 6.71092L18.9489 8.46669H19.2252L19.2011 7.03234C19.2358 6.9654 19.3781 6.83152 19.6696 6.83152C19.9611 6.83152 20.0046 7.09665 19.9899 7.22921V8.46669H20.2421V7.08859C20.2261 6.94663 20.082 6.66271 19.6336 6.66271C19.4446 6.66271 19.2665 6.8127 19.2011 6.8877L19.1571 6.71092H18.9249Z" fill="#474752"/>
<path fill-rule="evenodd" clip-rule="evenodd" d="M21.1616 6.86315C21.1428 6.87857 21.1417 6.90614 21.1575 6.92464L21.2016 6.97621C21.218 6.9954 21.2465 6.99752 21.2666 6.98221C21.3352 6.92987 21.4404 6.87094 21.628 6.87094C21.8645 6.87094 21.9864 7.03459 21.9864 7.27746C21.9864 7.47175 21.9655 7.58571 21.9551 7.61618C21.7966 7.59809 21.4048 7.58278 21.2312 7.65096C21.0777 7.71123 20.856 7.82034 20.856 8.20322C20.856 8.50952 21.2261 8.60133 21.4112 8.60895C21.5341 8.60895 21.7689 8.53127 21.8896 8.3644C21.8611 8.47107 21.8685 8.65181 22.0348 8.66324C22.1542 8.67145 22.242 8.62246 22.2821 8.5942C22.2972 8.58348 22.3019 8.56386 22.2953 8.54644L22.2792 8.50362C22.2679 8.4736 22.2298 8.46365 22.2026 8.48057C22.139 8.52016 22.0428 8.55519 22.0563 8.39272C22.0662 8.2738 22.0962 7.96443 22.1487 7.55512C22.2012 7.14582 22.1569 6.8875 21.9294 6.77262C21.5662 6.58913 21.2697 6.77455 21.1616 6.86315ZM21.4112 8.44174C21.8472 8.44174 21.9067 8.16991 21.9294 7.76226C21.5849 7.65654 21.0582 7.77474 21.0582 8.14036C21.0582 8.41009 21.3002 8.44535 21.4112 8.44174Z" fill="#474752"/>
<path fill-rule="evenodd" clip-rule="evenodd" d="M21.1616 6.86315C21.1428 6.87857 21.1417 6.90614 21.1575 6.92464L21.2016 6.97621C21.218 6.9954 21.2465 6.99752 21.2666 6.98221C21.3352 6.92987 21.4404 6.87094 21.628 6.87094C21.8645 6.87094 21.9864 7.03459 21.9864 7.27746C21.9864 7.47175 21.9655 7.58571 21.9551 7.61618C21.7966 7.59809 21.4048 7.58278 21.2312 7.65096C21.0777 7.71123 20.856 7.82034 20.856 8.20322C20.856 8.50952 21.2261 8.60133 21.4112 8.60895C21.5341 8.60895 21.7689 8.53127 21.8896 8.3644C21.8611 8.47107 21.8685 8.65181 22.0348 8.66324C22.1542 8.67145 22.242 8.62246 22.2821 8.5942C22.2972 8.58348 22.3019 8.56386 22.2953 8.54644L22.2792 8.50362C22.2679 8.4736 22.2298 8.46365 22.2026 8.48057C22.139 8.52016 22.0428 8.55519 22.0563 8.39272C22.0662 8.2738 22.0962 7.96443 22.1487 7.55512C22.2012 7.14582 22.1569 6.8875 21.9294 6.77262C21.5662 6.58913 21.2697 6.77455 21.1616 6.86315ZM21.4112 8.44174C21.8472 8.44174 21.9067 8.16991 21.9294 7.76226C21.5849 7.65654 21.0582 7.77474 21.0582 8.14036C21.0582 8.41009 21.3002 8.44535 21.4112 8.44174Z" fill="#474752"/>
<path d="M27.1344 8.59633C27.1578 8.55356 27.2104 8.53652 27.2544 8.55745L27.2957 8.57712C27.3433 8.59982 27.3622 8.65799 27.337 8.70448L26.5602 10.1398C26.5361 10.1842 26.481 10.2009 26.4365 10.1773L26.3886 10.152C26.3432 10.1279 26.3262 10.0711 26.351 10.0259L27.1344 8.59633Z" fill="#474752"/>
<path d="M27.6203 8.04223C27.5841 7.97078 27.4988 7.93936 27.4253 7.97067C27.3475 8.00381 27.3117 8.09462 27.3456 8.17237C27.3804 8.25226 27.4748 8.28696 27.5526 8.24814C27.6282 8.21041 27.6585 8.11778 27.6203 8.04223Z" fill="#474752"/>
<path d="M26.2533 8.29559C26.28 8.32314 26.3221 8.33014 26.3549 8.31039C26.3909 8.28869 26.404 8.24235 26.3801 8.20766C26.2767 8.05762 26.0466 7.84285 25.6722 7.88383C25.1316 7.94301 24.8368 8.6236 24.8368 8.96224C24.8368 9.30089 25.065 9.61504 25.4364 9.69787C25.6083 9.73619 25.7936 9.68917 25.8896 9.65614C25.9214 9.64522 25.9359 9.60995 25.9236 9.57858C25.9109 9.54591 25.8747 9.53144 25.8421 9.54388C25.7642 9.5735 25.629 9.6063 25.4364 9.53704C25.1159 9.42173 24.877 9.00298 25.2036 8.47196C25.4994 7.99087 25.8953 7.92552 26.2533 8.29559Z" fill="#474752"/>
<path d="M30.3295 9.79382C30.3624 9.75786 30.4175 9.75384 30.4552 9.78465L30.4907 9.8136C30.5316 9.847 30.5362 9.90801 30.5007 9.94717L28.9038 11.7763C28.87 11.8137 28.8125 11.8168 28.7748 11.7833L28.7343 11.7472C28.6959 11.713 28.6928 11.6538 28.7276 11.6159L30.3295 9.79382Z" fill="#474752"/>
<path d="M23.3329 7.05831C23.2832 7.04553 23.2327 7.07597 23.2207 7.12597L22.8524 8.65331C22.8406 8.70235 22.8702 8.75182 22.9189 8.76436L23.0081 8.78733C23.0579 8.80014 23.1084 8.76954 23.1204 8.71939L23.4252 7.43804C23.4287 7.42312 23.4357 7.40904 23.4474 7.39911C23.5129 7.3433 23.6775 7.27154 23.9341 7.33759C24.2164 7.41028 24.1929 7.67794 24.1458 7.80269L23.8622 8.91199C23.8496 8.96134 23.8793 9.0116 23.9284 9.02426L23.9947 9.04132C24.0439 9.05398 24.0939 9.02424 24.1066 8.97489L24.425 7.72938C24.4446 7.58788 24.3753 7.27692 23.941 7.16509C23.8166 7.13308 23.68 7.16936 23.5796 7.21359C23.5297 7.23553 23.4669 7.20045 23.4672 7.14582C23.4674 7.11476 23.4465 7.08757 23.4165 7.07985L23.3329 7.05831Z" fill="#474752"/>
<path fill-rule="evenodd" clip-rule="evenodd" d="M28.1885 9.21655C28.1644 9.21966 28.1489 9.24247 28.1526 9.26656L28.1629 9.33372C28.1667 9.35871 28.1898 9.37566 28.2149 9.3733C28.3007 9.36524 28.421 9.37102 28.5803 9.47055C28.781 9.59598 28.7983 9.79957 28.6704 10.0057C28.5681 10.1707 28.4903 10.2563 28.4654 10.2767C28.3404 10.1772 28.0159 9.95644 27.8326 9.92222C27.6706 9.89196 27.4249 9.86698 27.2232 10.192C27.0618 10.452 27.3277 10.7263 27.4808 10.8309C27.5851 10.8961 27.8253 10.9547 28.0157 10.8771C27.9353 10.9525 27.8464 11.1099 27.9815 11.2078C28.0786 11.2781 28.1789 11.2831 28.2278 11.2803C28.2463 11.2793 28.2606 11.2651 28.2642 11.2468L28.273 11.2019C28.2793 11.1704 28.2522 11.1418 28.2202 11.1417C28.1454 11.1416 28.0453 11.1203 28.1423 10.9895C28.2133 10.8938 28.4018 10.6472 28.6619 10.3275C28.9221 10.0079 29.0205 9.76513 28.888 9.54698C28.6763 9.19856 28.3269 9.19866 28.1885 9.21655ZM27.5689 10.689C27.939 10.9202 28.1326 10.721 28.3667 10.3871C28.1299 10.1146 27.6205 9.93551 27.4279 10.2459C27.2858 10.4748 27.4727 10.6332 27.5689 10.689Z" fill="#474752"/>
<path fill-rule="evenodd" clip-rule="evenodd" d="M28.1885 9.21655C28.1644 9.21966 28.1489 9.24247 28.1526 9.26656L28.1629 9.33372C28.1667 9.35871 28.1898 9.37566 28.2149 9.3733C28.3007 9.36524 28.421 9.37102 28.5803 9.47055C28.781 9.59598 28.7983 9.79957 28.6704 10.0057C28.5681 10.1707 28.4903 10.2563 28.4654 10.2767C28.3404 10.1772 28.0159 9.95644 27.8326 9.92222C27.6706 9.89196 27.4249 9.86698 27.2232 10.192C27.0618 10.452 27.3277 10.7263 27.4808 10.8309C27.5851 10.8961 27.8253 10.9547 28.0157 10.8771C27.9353 10.9525 27.8464 11.1099 27.9815 11.2078C28.0786 11.2781 28.1789 11.2831 28.2278 11.2803C28.2463 11.2793 28.2606 11.2651 28.2642 11.2468L28.273 11.2019C28.2793 11.1704 28.2522 11.1418 28.2202 11.1417C28.1454 11.1416 28.0453 11.1203 28.1423 10.9895C28.2133 10.8938 28.4018 10.6472 28.6619 10.3275C28.9221 10.0079 29.0205 9.76513 28.888 9.54698C28.6763 9.19856 28.3269 9.19866 28.1885 9.21655ZM27.5689 10.689C27.939 10.9202 28.1326 10.721 28.3667 10.3871C28.1299 10.1146 27.6205 9.93551 27.4279 10.2459C27.2858 10.4748 27.4727 10.6332 27.5689 10.689Z" fill="#474752"/>
<path d="M10.7006 11.9426L9.31558 10.4084L8.88247 10.8252M10.7006 11.9426C10.7347 11.9804 10.7929 11.9832 10.8305 11.9489M10.7006 11.9426L10.7624 12.0111L10.8305 11.9489M8.88247 10.8252C8.84878 10.8576 8.79539 10.8568 8.76258 10.8235M8.88247 10.8252L8.82172 10.8836L8.76258 10.8235M8.76258 10.8235C8.72857 10.789 8.72993 10.733 8.76559 10.7001M8.76258 10.8235L8.70032 10.7603L8.76559 10.7001M8.76559 10.7001L9.81165 9.73647M9.81165 9.73647C9.84548 9.70531 9.89824 9.70822 9.92846 9.74291M9.81165 9.73647L9.87334 9.67963L9.92846 9.74291M9.92846 9.74291C9.95776 9.77656 9.95483 9.82755 9.92186 9.85759M9.92846 9.74291L9.98122 9.8035L9.92186 9.85759M9.92186 9.85759L9.48203 10.2584L10.8884 11.7698M10.8884 11.7698C10.9234 11.8074 10.9209 11.8664 10.883 11.901M10.8884 11.7698L10.9519 11.8381L10.883 11.901M10.883 11.901L10.8305 11.9489M11.7727 11.0246L10.3829 8.9695M11.7727 11.0246C11.8023 11.0683 11.8623 11.0782 11.9043 11.0463M11.7727 11.0246L11.8271 11.105L11.9043 11.0463M10.3829 8.9695C10.3549 8.92814 10.3648 8.87194 10.4053 8.84278M10.3829 8.9695L10.3326 8.89518L10.4053 8.84278M10.4053 8.84278L10.4384 8.81891M10.4384 8.81891C10.4798 8.78903 10.5376 8.79875 10.5671 8.84058M10.4384 8.81891L10.5136 8.76468L10.5671 8.84058M10.5671 8.84058L11.1317 9.64194C11.1541 9.56032 11.25 9.35179 11.455 9.1706C11.66 8.98941 11.9143 9.06736 11.9857 9.1706L12.8138 10.2675M12.8138 10.2675C12.8443 10.3078 12.8366 10.3652 12.7967 10.3962M12.8138 10.2675L12.8688 10.3403L12.7967 10.3962M12.7967 10.3962L12.7651 10.4207M12.7651 10.4207C12.7229 10.4534 12.662 10.4435 12.632 10.3993M12.7651 10.4207L12.687 10.4813C12.6702 10.4559 12.6517 10.4284 12.632 10.3993M12.632 10.3993C12.4058 10.0659 12.0082 9.51789 11.9185 9.4053C11.8209 9.28287 11.7139 9.2792 11.6354 9.2792C11.5569 9.2792 11.4466 9.35732 11.3441 9.49443C11.2416 9.63155 11.2103 9.80804 11.2367 9.84272L11.9737 10.8812M11.9737 10.8812C12.0025 10.9219 11.994 10.9782 11.9543 11.0083M11.9737 10.8812L12.0255 10.9542L11.9543 11.0083M11.9543 11.0083L11.9043 11.0463M14.1931 8.7615L13.3084 9.22325C13.3028 9.33987 13.4798 9.62206 13.715 9.70133C14.0513 9.75325 14.2597 9.50956 14.3154 9.3474M14.1931 8.7615C14.2307 8.7419 14.2505 8.69892 14.236 8.65903M14.1931 8.7615L14.2571 8.72811C14.2516 8.70557 14.2445 8.68247 14.236 8.65903M14.3154 9.3474C14.3302 9.30432 14.3639 9.26452 14.4093 9.26699M14.3154 9.3474C14.3254 9.31824 14.3305 9.29171 14.3305 9.27001C14.3305 9.27001 14.3658 9.26462 14.4093 9.26699M14.4093 9.26699C14.4152 9.26731 14.4212 9.26778 14.4274 9.26842M14.4274 9.26842C14.4687 9.27272 14.4929 9.31341 14.4828 9.35384M14.4274 9.26842C14.4501 9.27079 14.474 9.27557 14.4957 9.28443C14.4928 9.30797 14.4884 9.33112 14.4828 9.35384M14.4828 9.35384C14.413 9.63322 14.1429 9.84677 13.8929 9.89651C13.6225 9.95029 13.1628 9.75542 12.9973 9.32904C12.8317 8.90265 12.7621 8.35583 13.3084 8.12326C13.7159 7.94978 14.1178 8.33578 14.236 8.65903M13.208 9.10617C13.0912 8.89949 12.9591 8.44499 13.3646 8.28041C13.6835 8.16612 13.8999 8.48042 14.0081 8.68615C13.8851 8.75701 13.4234 8.99569 13.208 9.10617ZM15.6698 6.73507L16.2223 8.95689L16.4918 8.88337L16.2223 7.88417L17.0348 7.65634L16.9899 7.5014L16.1903 7.7315L15.9541 6.83152L16.935 6.58644L16.8669 6.40162L15.6698 6.73507ZM17.7606 6.83152L17.9868 6.79311L18.1921 8.60331L17.9554 8.63321L17.7606 6.83152ZM18.9249 6.71092L18.9489 8.46668H19.2252L19.2011 7.03234C19.2358 6.9654 19.3781 6.83152 19.6696 6.83152C19.9611 6.83152 20.0046 7.09665 19.9899 7.22921V8.46668H20.2421V7.08859C20.2261 6.94663 20.082 6.66271 19.6336 6.66271C19.4446 6.66271 19.2665 6.8127 19.2011 6.8877L19.1571 6.71092H18.9249ZM21.628 6.87094C21.4404 6.87094 21.3352 6.92987 21.2666 6.98221C21.2465 6.99752 21.218 6.9954 21.2016 6.97621L21.1575 6.92464C21.1417 6.90614 21.1428 6.87857 21.1616 6.86315C21.2697 6.77455 21.5662 6.58913 21.9294 6.77262C22.1569 6.8875 22.2012 7.14582 22.1487 7.55512C22.0962 7.96443 22.0662 8.2738 22.0563 8.39272C22.0428 8.55519 22.139 8.52016 22.2026 8.48057C22.2298 8.46365 22.2679 8.4736 22.2792 8.50362L22.2953 8.54644C22.3019 8.56386 22.2972 8.58348 22.2821 8.5942C22.242 8.62246 22.1542 8.67145 22.0348 8.66324C21.8685 8.65181 21.8611 8.47107 21.8896 8.3644C21.7689 8.53127 21.5341 8.60895 21.4112 8.60895C21.2261 8.60133 20.856 8.50952 20.856 8.20322C20.856 7.82034 21.0777 7.71123 21.2312 7.65096C21.4048 7.58278 21.7966 7.59809 21.9551 7.61618C21.9655 7.58571 21.9864 7.47175 21.9864 7.27746C21.9864 7.03459 21.8645 6.87094 21.628 6.87094ZM21.9294 7.76226C21.9067 8.16991 21.8472 8.44174 21.4112 8.44174C21.3002 8.44535 21.0582 8.41009 21.0582 8.14036C21.0582 7.77474 21.5849 7.65654 21.9294 7.76226ZM17.9135 6.39199C17.9538 6.31756 17.9257 6.22424 17.8512 6.18437C17.7807 6.14666 17.6929 6.17 17.6506 6.23796C17.6058 6.30992 17.6284 6.4049 17.7006 6.4491C17.7747 6.49451 17.8719 6.46857 17.9135 6.39199ZM27.5526 8.24814C27.6282 8.21041 27.6585 8.11778 27.6203 8.04223C27.5841 7.97078 27.4988 7.93936 27.4253 7.97067C27.3475 8.00381 27.3117 8.09462 27.3456 8.17237C27.3804 8.25226 27.4748 8.28696 27.5526 8.24814ZM26.3886 10.152L26.4365 10.1773C26.481 10.2009 26.5361 10.1842 26.5602 10.1398L27.337 8.70448C27.3622 8.65799 27.3433 8.59982 27.2957 8.57712L27.2544 8.55745C27.2104 8.53652 27.1578 8.55356 27.1344 8.59633L26.351 10.0259C26.3262 10.0711 26.3432 10.1279 26.3886 10.152ZM25.6722 7.88383C26.0466 7.84285 26.2767 8.05762 26.3801 8.20766C26.404 8.24235 26.3909 8.28869 26.3549 8.31039C26.3221 8.33014 26.28 8.32314 26.2533 8.29559C25.8953 7.92552 25.4994 7.99087 25.2036 8.47196C24.877 9.00298 25.1159 9.42173 25.4364 9.53704C25.629 9.6063 25.7642 9.5735 25.8421 9.54388C25.8747 9.53144 25.9109 9.54591 25.9236 9.57858C25.9359 9.60995 25.9214 9.64522 25.8896 9.65614C25.7936 9.68917 25.6083 9.73619 25.4364 9.69787C25.065 9.61504 24.8368 9.30089 24.8368 8.96224C24.8368 8.6236 25.1316 7.94301 25.6722 7.88383ZM28.7343 11.7472L28.7748 11.7833C28.8125 11.8168 28.87 11.8137 28.9038 11.7763L30.5007 9.94717C30.5362 9.90801 30.5316 9.847 30.4907 9.8136L30.4552 9.78465C30.4175 9.75384 30.3624 9.75786 30.3295 9.79382L28.7276 11.6159C28.6928 11.6538 28.6959 11.713 28.7343 11.7472ZM23.9341 7.33759C23.6775 7.27154 23.5129 7.3433 23.4474 7.39911C23.4357 7.40904 23.4287 7.42312 23.4252 7.43804L23.1204 8.71939C23.1084 8.76954 23.0579 8.80014 23.0081 8.78733L22.9189 8.76436C22.8702 8.75182 22.8406 8.70235 22.8524 8.65331L23.2207 7.12597C23.2327 7.07597 23.2832 7.04553 23.3329 7.05831L23.4165 7.07985C23.4465 7.08757 23.4674 7.11476 23.4672 7.14582C23.4669 7.20045 23.5297 7.23553 23.5796 7.21359C23.68 7.16936 23.8166 7.13308 23.941 7.16509C24.3753 7.27692 24.4446 7.58788 24.425 7.72938L24.1066 8.97489C24.0939 9.02424 24.0439 9.05398 23.9947 9.04132L23.9284 9.02426C23.8793 9.0116 23.8496 8.96134 23.8622 8.91199L24.1458 7.80269C24.1929 7.67794 24.2164 7.41028 23.9341 7.33759ZM28.5803 9.47055C28.421 9.37102 28.3007 9.36524 28.2149 9.3733C28.1898 9.37566 28.1667 9.35871 28.1629 9.33372L28.1526 9.26656C28.1489 9.24247 28.1644 9.21966 28.1885 9.21655C28.3269 9.19866 28.6763 9.19856 28.888 9.54698C29.0205 9.76513 28.9221 10.0079 28.6619 10.3275C28.4018 10.6472 28.2133 10.8938 28.1423 10.9895C28.0453 11.1203 28.1454 11.1416 28.2202 11.1417C28.2522 11.1418 28.2793 11.1704 28.273 11.2019L28.2642 11.2468C28.2606 11.2651 28.2463 11.2793 28.2278 11.2803C28.1789 11.2831 28.0786 11.2781 27.9815 11.2078C27.8464 11.1099 27.9353 10.9525 28.0157 10.8771C27.8253 10.9547 27.5851 10.8961 27.4808 10.8309C27.3277 10.7263 27.0618 10.452 27.2232 10.192C27.4249 9.86698 27.6706 9.89196 27.8326 9.92222C28.0159 9.95644 28.3404 10.1772 28.4654 10.2767C28.4903 10.2563 28.5681 10.1707 28.6704 10.0057C28.7983 9.79957 28.781 9.59598 28.5803 9.47055ZM28.3667 10.3871C28.1326 10.721 27.939 10.9202 27.5689 10.689C27.4727 10.6332 27.2858 10.4748 27.4279 10.2459C27.6205 9.93551 28.1299 10.1146 28.3667 10.3871Z" stroke="#474752" stroke-width="0.219024"/>
<path d="M54.2664 8.07856V7.36073H59.3787V8.07856H57.5484V14.2644H56.1388V8.07856H54.2664Z" fill="#474752"/>
<path d="M61.5878 6.2207L60.2413 6.34737V14.2644H61.5878V10.1346C62.5159 9.21634 63.3352 9.78224 63.3352 10.2841V14.2644H64.7078C64.683 13.3896 64.6333 11.3689 64.6333 10.2841C64.6333 9.19925 63.8814 8.88534 63.5054 8.86398H63.1117C62.5669 8.86398 61.8688 9.24111 61.5878 9.42968V6.2207Z" fill="#474752"/>
<path d="M54.91 27.1435V20.1862H59.0741V20.9832H56.3696V23.611H58.7307V24.3003H56.3696V27.1435H54.91Z" fill="#474752"/>
<path d="M59.9756 27.1435V21.8663H61.3494V27.1435H59.9756Z" fill="#474752"/>
<path d="M62.6365 27.1435V21.8663H63.7558L63.9983 22.3012C64.191 22.0891 64.7743 21.6648 65.5652 21.6648C66.8188 21.6648 67.1197 22.713 67.1135 23.2372V27.1435H65.6958V23.2372C65.5615 22.2338 64.5082 22.6319 63.9983 22.9564V27.1435H62.6365Z" fill="#474752"/>
<path d="M59.8835 20.1881C59.8835 19.7644 60.2258 19.4209 60.648 19.4209C61.0703 19.4209 61.4126 19.7644 61.4126 20.1881C61.4126 20.6118 61.0703 20.9554 60.648 20.9554C60.2258 20.9554 59.8835 20.6118 59.8835 20.1881Z" fill="#474752"/>
<path d="M73.8549 27.1435V21.8663H74.9741L75.2166 22.3012C75.4094 22.0891 75.9926 21.6648 76.7836 21.6648C78.0371 21.6648 78.3381 22.713 78.3318 23.2372V27.1435H76.9141V23.2372C76.7798 22.2338 75.7265 22.6319 75.2166 22.9564V27.1435H73.8549Z" fill="#474752"/>
<path d="M84.3115 27.1435V21.8663H85.6853V27.1435H84.3115Z" fill="#474752"/>
<path d="M84.2193 20.1881C84.2193 19.7644 84.5616 19.4209 84.9839 19.4209C85.4062 19.4209 85.7485 19.7644 85.7485 20.1881C85.7485 20.6118 85.4062 20.9554 84.9839 20.9554C84.5616 20.9554 84.2193 20.6118 84.2193 20.1881Z" fill="#474752"/>
<path d="M59.7294 33.4796L59.5814 34.1903C58.507 33.591 57.7622 33.5839 57.3563 33.6866C56.4251 33.9224 56.0095 34.8366 56.0513 36.5239C56.0012 37.9593 56.3582 39.0581 57.2894 39.2939C57.6953 39.3967 58.6841 39.5117 59.6566 38.4125L60.1185 38.7697C59.4747 39.7618 58.5907 40.0785 57.5785 40.0785C56.3133 40.0785 54.5294 39.3706 54.5294 36.5901C54.5294 33.8097 56.3133 32.9195 57.5785 32.9195C58.5907 32.9195 59.4342 33.2929 59.7294 33.4796Z" fill="#474752"/>
<path d="M66.4563 39.9243V34.6471H67.5755L67.818 35.1162C68.0598 34.9065 68.6143 34.5537 69.1125 34.5537C69.8265 34.5537 70.2063 34.8587 70.3997 35.2181C70.4907 35.387 70.5405 35.568 70.5645 35.735C70.5791 35.8364 70.5842 35.9327 70.5831 36.0179V39.9243H69.2201V36.0179C69.0858 35.0146 68.3279 35.4127 67.818 35.7372V39.9243H66.4563Z" fill="#474752"/>
<path d="M82.6775 39.9243V34.6471H84.0513V39.9243H82.6775Z" fill="#474752"/>
<path d="M82.5853 32.9689C82.5853 32.5451 82.9276 32.2016 83.3499 32.2016C83.7722 32.2016 84.1145 32.5451 84.1145 32.9689C84.1145 33.3926 83.7722 33.7361 83.3499 33.7361C82.9276 33.7361 82.5853 33.3926 82.5853 32.9689Z" fill="#474752"/>
<path d="M94.281 39.9243V34.6471H95.6547V39.9243H94.281Z" fill="#474752"/>
<path d="M94.1888 32.9689C94.1888 32.5451 94.5311 32.2016 94.9534 32.2016C95.3756 32.2016 95.7179 32.5451 95.7179 32.9689C95.7179 33.3926 95.3756 33.7361 94.9534 33.7361C94.5311 33.7361 94.1888 33.3926 94.1888 32.9689Z" fill="#474752"/>
<path d="M102.647 39.9243V34.6471H103.766L104.009 35.082C104.202 34.8698 104.785 34.4455 105.576 34.4455C106.829 34.4455 107.13 35.4938 107.124 36.0179V39.9243H105.706V36.0179C105.572 35.0146 104.519 35.4127 104.009 35.7372V39.9243H102.647Z" fill="#474752"/>
<path fill-rule="evenodd" clip-rule="evenodd" d="M67.1162 11.9183H69.9812V10.9231C69.9649 10.2367 69.5454 8.86398 67.9978 8.86398C66.0633 8.86398 65.6347 10.8371 65.6347 11.7708C65.6347 12.7046 66.1122 14.3755 67.9978 14.3755C69.3103 14.3755 69.867 13.7121 69.9812 13.3803L69.5527 13.0609C69.365 13.2861 68.8181 13.7366 68.1324 13.7366C67.2754 13.7366 67.1162 12.6063 67.1162 11.9183ZM68.8058 11.2794H67.1162C67.1162 10.6807 67.2925 9.48327 67.9978 9.48327C68.703 9.48327 68.8303 10.6807 68.8058 11.2794Z" fill="#474752"/>
<path d="M83.177 22.7105L83.3145 22.0995C83.0854 21.9546 82.4307 21.6648 81.645 21.6648C80.663 21.6648 79.2783 22.3557 79.2783 24.5138C79.2783 26.672 80.663 27.2214 81.645 27.2214C82.4307 27.2214 83.1168 26.9757 83.6165 26.2056L83.1816 25.8957C82.4267 26.7488 81.8619 26.5864 81.5468 26.5067C80.8241 26.3237 80.7416 25.3515 80.7416 24.5138C80.7416 23.6762 80.8241 22.5625 81.5468 22.3795C81.8619 22.2997 82.3431 22.2453 83.177 22.7105Z" fill="#474752"/>
<path d="M92.4994 19.2119V27.1435H93.8912V19.0373L92.4994 19.2119Z" fill="#474752"/>
<path fill-rule="evenodd" clip-rule="evenodd" d="M89.645 24.0046C88.6942 23.9895 86.6759 24.3508 86.7486 25.9091C86.8316 27.686 89.3777 27.5069 89.7822 26.4981C89.7822 26.8576 89.9762 27.3341 90.6507 27.2264C90.9125 27.1846 91.4601 27.0831 91.6229 27.0529V26.5409C91.4275 26.6535 91.0367 26.7566 91.0367 26.2686V23.3192C91.0367 22.7091 90.5894 21.6648 88.9307 21.6648C88.7244 21.6525 88.1208 21.7324 87.3566 22.1507C87.426 22.4383 87.4796 22.6991 87.4977 22.7935C87.7691 22.6555 88.4139 22.3795 88.8221 22.3795C89.3323 22.3795 89.692 22.5665 89.645 24.0046ZM89.645 25.9091V24.5241C87.9674 24.5935 87.7047 26.3983 88.5693 26.5409C89.2611 26.655 89.5894 26.1672 89.645 25.9091Z" fill="#474752"/>
<path fill-rule="evenodd" clip-rule="evenodd" d="M99.0985 34.5537C98.5984 34.5362 97.4953 34.7459 96.9798 35.6546C96.6489 36.2379 96.6228 36.9653 96.6228 37.4546C96.6228 37.9439 96.7232 38.4654 97.0541 39.0487C97.5695 39.9574 98.5984 40.0666 99.0985 40.0492C99.5987 40.0666 100.588 39.9574 101.104 39.0487C101.435 38.4654 101.574 37.9439 101.574 37.4546C101.574 36.9653 101.501 36.2379 101.17 35.6546C100.655 34.7459 99.5987 34.5362 99.0985 34.5537ZM98.0823 36.8595C98.0823 35.422 98.7598 35.181 99.0985 35.2008C99.4373 35.181 100.115 35.422 100.115 36.8595V37.4546V38.0497C100.115 39.2545 99.4425 39.4533 99.1003 39.4533C98.7582 39.4533 98.0823 39.2545 98.0823 38.0497V37.4546V36.8595Z" fill="#474752"/>
<path d="M92.8414 35.5734L93.0417 34.9095C92.7585 34.7816 92.0366 34.5502 91.4394 34.5502C90.6929 34.5502 89.6965 34.9461 89.7096 36.1459C89.7298 37.9854 91.8036 37.3335 91.8643 38.7343C91.6862 39.9363 90.1765 39.3248 89.8239 38.8198L89.4796 39.2887C90.0781 39.8811 90.499 40.032 91.185 40.0621C91.8709 40.0923 93.2429 39.7988 93.2429 38.3837C93.2429 36.5408 90.2749 36.8369 91.0866 35.3724C91.5523 34.8561 92.4505 35.2912 92.8414 35.5734Z" fill="#474752"/>
<path d="M88.4066 35.5734L88.6069 34.9095C88.3237 34.7816 87.6018 34.5502 87.0046 34.5502C86.2581 34.5502 85.2617 34.9461 85.2748 36.1459C85.295 37.9854 87.3687 37.3335 87.4294 38.7343C87.2514 39.9363 85.7417 39.3248 85.3891 38.8198L85.0448 39.2887C85.6433 39.8811 86.0642 40.032 86.7501 40.0621C87.4361 40.0923 88.8081 39.7988 88.8081 38.3837C88.8081 36.5408 85.8401 36.8369 86.6518 35.3724C87.1175 34.8561 88.0157 35.2912 88.4066 35.5734Z" fill="#474752"/>
<path fill-rule="evenodd" clip-rule="evenodd" d="M63.0391 34.5537C62.5389 34.5362 61.4358 34.7459 60.9204 35.6546C60.5895 36.2379 60.5634 36.9653 60.5634 37.4546C60.5634 37.9439 60.6637 38.4654 60.9946 39.0487C61.5101 39.9574 62.5389 40.0666 63.0391 40.0492C63.5393 40.0666 64.5289 39.9574 65.0444 39.0487C65.3752 38.4654 65.5148 37.9439 65.5148 37.4546C65.5148 36.9653 65.4415 36.2379 65.1106 35.6546C64.5951 34.7459 63.5393 34.5362 63.0391 34.5537ZM62.0229 36.8595C62.0229 35.422 62.7004 35.181 63.0391 35.2008C63.3778 35.181 64.0553 35.422 64.0553 36.8595V37.4546V38.0497C64.0553 39.2545 63.383 39.4533 63.0409 39.4533C62.6987 39.4533 62.0229 39.2545 62.0229 38.0497V37.4546V36.8595Z" fill="#474752"/>
<path fill-rule="evenodd" clip-rule="evenodd" d="M70.963 24.0046C70.0122 23.9895 67.9938 24.3508 68.0666 25.9091C68.1495 27.686 70.6956 27.5069 71.1001 26.4981C71.1001 26.8576 71.2941 27.3341 71.9686 27.2264C72.2304 27.1846 72.778 27.0831 72.9408 27.0529V26.5409C72.7454 26.6535 72.3546 26.7566 72.3546 26.2686V23.3192C72.3546 22.7091 71.9074 21.6648 70.2486 21.6648C70.0423 21.6525 69.4387 21.7324 68.6745 22.1507C68.744 22.4383 68.7975 22.6991 68.8156 22.7935C69.087 22.6555 69.7318 22.3795 70.14 22.3795C70.6502 22.3795 71.0099 22.5665 70.963 24.0046ZM70.963 25.9091V24.5241C69.2853 24.5935 69.0226 26.3983 69.8872 26.5409C70.579 26.655 70.9073 26.1672 70.963 25.9091Z" fill="#474752"/>
<path d="M70.3997 35.2181C70.4907 35.387 70.5405 35.568 70.5645 35.735C71.0744 35.4125 71.8341 35.0257 71.9669 36.0179V39.9243H73.33V36.0179C73.3362 35.4938 73.1129 34.5537 71.8593 34.5537C71.3686 34.5537 70.6523 35.0041 70.3997 35.2181Z" fill="#474752"/>
<path d="M78.5571 35.2198C78.6478 35.3888 78.6973 35.5698 78.7212 35.7367C79.2311 35.4142 79.9905 35.0258 80.1233 36.0179V39.9243H81.4863V36.0179C81.4926 35.4938 81.2693 34.5537 80.0157 34.5537C79.5278 34.5537 78.8135 35.0042 78.5571 35.2198Z" fill="#474752"/>
<path d="M74.6127 34.6471V39.9243H75.9744V35.7372C76.4843 35.4127 77.2422 35.0146 77.3765 36.0179V39.9243H78.7395V36.0179C78.7405 35.9332 78.7355 35.8375 78.7212 35.7367C78.6973 35.5698 78.6478 35.3888 78.5571 35.2198C78.3639 34.8597 77.984 34.5537 77.2689 34.5537C76.7707 34.5537 76.2162 34.9065 75.9744 35.1162L75.7319 34.6471H74.6127Z" fill="#474752"/>
<rect x="45.7188" y="4" width="0.547561" height="38.3052" fill="#474752"/>
</svg>
