<svg xmlns="http://www.w3.org/2000/svg" width="32" height="33" fill="none" class="mdl-js"><path d="M23.831 14.943c-.012-2.098.957-3.68 2.916-4.846-1.095-1.538-2.753-2.384-4.938-2.548-2.068-.16-4.332 1.182-5.16 1.182-.876 0-2.879-1.126-4.455-1.126-3.252.05-6.708 2.541-6.708 7.612 0 1.498.28 3.046.838 4.64.747 2.098 3.44 7.24 6.25 7.156 1.47-.034 2.508-1.021 4.42-1.021 1.855 0 2.816 1.021 4.454 1.021 2.835-.04 5.271-4.713 5.98-6.818-3.801-1.757-3.597-5.144-3.597-5.252Zm-3.3-9.384c1.592-1.852 1.448-3.539 1.4-4.145-1.405.08-3.032.939-3.958 1.994-1.02 1.132-1.62 2.532-1.49 4.11 1.519.115 2.906-.652 4.049-1.96Z" fill="#C0BAC8"/></svg>