<svg xmlns="http://www.w3.org/2000/svg" width="32" height="33" fill="none" class="mdl-js"><g clip-path="url(#a)"><path fill="#C0BAC8" d="M2.616 4.962h27v23h-27z"/><path d="M30.126 3.96H19.149c1.062-1.549 1.872-2.474 1.895-2.5a.576.576 0 1 0-.862-.766c-.11.124-1.165 1.326-2.442 3.266H1.874a.576.576 0 0 0-.576.576v23.64c0 .319.258.576.576.576h16.262c.333 1.12.783 2.273 1.388 3.437a.576.576 0 1 0 1.023-.531 17.992 17.992 0 0 1-1.198-2.906h10.777a.576.576 0 0 0 .576-.576V4.536a.576.576 0 0 0-.576-.576ZM2.451 27.6V5.112h14.56c-1.918 3.161-4.022 7.713-4.181 12.666a.577.577 0 0 0 .576.596h4.438a19.75 19.75 0 0 0-.521 3.99 29.01 29.01 0 0 1-1.611.046c-4.043 0-7.773-.846-9.505-2.153a.575.575 0 1 0-.695.92c1.948 1.472 5.857 2.386 10.2 2.386.544 0 1.08-.015 1.607-.042.03 1.243.176 2.62.514 4.078H2.451Zm27.098 0H19.028a19.233 19.233 0 0 1-.54-4.167c3.232-.302 5.974-1.126 7.484-2.302a.576.576 0 1 0-.708-.91c-1.31 1.02-3.823 1.761-6.768 2.052.094-2.557.642-4.26.654-4.293a.578.578 0 0 0-.547-.759H14.01c.316-4.755 2.52-9.167 4.378-12.107h11.16v22.485Z" fill="#F8F8FA"/><path d="M22.054 8.573H20.9v4.093h1.153V8.573ZM9.946 8.573H8.793v4.093h1.153V8.573Z" fill="#F8F8FA"/></g><defs><clipPath id="a"><path fill="#fff" transform="translate(0 .5)" d="M0 0h32v32H0z"/></clipPath></defs></svg>