<svg width="67" height="46" viewBox="0 0 67 46" fill="none" xmlns="http://www.w3.org/2000/svg">
<path d="M37.0197 10.7789C37.8983 11.1037 39.1107 13.7217 39.6071 14.9902C44.0517 7.29393 50.5526 2.35349 53.9658 0.319784C54.1755 0.194848 54.4429 0.251049 54.5905 0.44588C54.7519 0.65894 54.711 0.963198 54.5021 1.12964C47.7587 6.50426 43.8162 13.0484 41.8302 17.1603C41.6295 17.5758 41.3187 17.9251 40.9259 18.1656C40.3169 18.5384 39.3666 19.1227 38.1884 19.8536C38.139 19.8842 38.0736 19.8579 38.0581 19.8017C36.96 15.8087 35.3284 13.3801 33.7536 12.4031C34.7074 11.185 35.9213 10.3729 37.0197 10.7789Z" fill="#474752"/>
<path d="M0.00012207 21.2858V21.1534V20.3889V20.2546C0.0402152 20.2607 0.0824611 20.2668 0.126777 20.273C1.38185 20.4479 4.29747 20.665 7.00267 20.2705C7.03827 20.2653 7.07384 20.26 7.10936 20.2546V20.3694V21.2021V21.2858C7.07299 21.2858 7.03743 21.2864 7.00267 21.2876C5.59462 21.3353 5.50216 22.3342 5.80915 23.0325L7.78044 28.5671C8.42356 26.7714 9.70979 23.0072 9.70979 22.317C9.70979 21.6267 9.06667 21.2578 8.74512 21.1595V20.2546C10.6241 20.6419 12.45 20.416 13.1281 20.2546V21.2858C12.0544 21.2858 11.5483 22.1136 11.4294 22.5274L7.12299 33.9814L7.10936 34.0176C7.10936 34.0176 7.09426 34.0163 7.06852 34.0143C6.98311 34.0077 6.78055 33.9934 6.62381 33.9934C6.47331 33.9934 6.30692 34.0066 6.23 34.0135C6.20266 34.016 6.18663 34.0176 6.18663 34.0176C6.18187 34.0056 6.17708 33.9935 6.17228 33.9814C5.03412 31.1042 2.66135 25.0293 2.16015 23.4534C1.69505 21.991 0.680775 21.4343 0.126777 21.3084C0.081266 21.298 0.0388611 21.2906 0.00012207 21.2858Z" fill="#474752"/>
<path d="M25.3603 22.7802V21.7719C26.5342 21.7719 29.5434 20.6676 30.0019 20.2801C30.6425 19.7388 31.2106 20.2801 31.1361 20.6676C31.0203 21.2695 30.9109 22.7749 30.8706 23.4523C31.4691 22.3633 32.0772 21.6362 32.7529 20.9097C34.1525 19.6748 35.6245 20.3964 35.4556 21.365L34.9247 24.2272H34.2007C34.0962 23.7449 33.7616 22.842 33.2596 23.0891C31.3291 23.6896 30.8626 25.7608 30.8706 26.7214V31.5048C30.8706 31.9761 31.4739 32.7844 33.0927 32.7844V33.7871C30.3077 33.4175 26.8934 33.6331 25.5343 33.7871V32.7844C27.0329 32.7844 27.3926 32.022 27.385 31.6408C27.4167 29.539 27.48 25.0537 27.48 23.9266C27.48 22.7995 26.856 22.619 26.544 22.6697L25.3603 22.7802Z" fill="#474752"/>
<path d="M35.9057 22.5977V21.8188C37.0431 21.6526 39.606 21.0392 40.7586 19.9152C41.086 19.6054 41.7746 19.9702 41.5286 20.6676C40.9729 24.2975 41.0549 30.7958 41.3169 31.6408C41.5788 32.4857 42.5413 32.6764 43.2034 32.7844V33.7871C40.6363 33.5664 37.2441 33.6951 35.8688 33.7871V32.7844C37.3707 32.7844 37.8252 32.022 37.8647 31.6408C38.1881 26.4997 38.0076 24.2272 37.8647 23.4523C37.7336 22.7413 37.1145 22.5815 36.7572 22.5977H35.9057Z" fill="#474752"/>
<path d="M44.2248 22.016V21.365C44.2248 20.977 45.5443 20.4484 46.204 20.2326V18.9001C46.204 14.7525 49.7318 13.5164 50.2862 13.3023C50.9984 13.0272 52.6032 12.9311 54.3703 13.5702C54.8099 13.68 55.0859 13.5935 55.2128 13.7003C55.2896 13.8865 54.9569 14.7094 54.811 15.5992C54.6614 16.5115 54.696 17.4902 54.5647 17.6021C54.1827 17.7005 53.358 17.7641 53.2893 16.8325C53.1861 14.9231 52.0125 14.488 51.4386 14.5091C50.0405 14.5091 49.4456 16.2297 49.4456 17.7021V20.5311L52.945 20.4153C52.7856 21.066 52.2954 22.3443 51.6095 22.2517C50.9237 22.1591 49.9616 22.056 49.4456 22.016L49.6729 31.6408C49.9345 32.4847 51.1079 32.676 51.7705 32.784L51.773 32.7844V33.7871C49.2059 33.5664 45.6001 33.6951 44.2248 33.7871V32.7844C45.716 32.519 46.0732 31.6695 46.0654 31.278V22.016H44.2248Z" fill="#474752"/>
<path d="M53.7687 37.758C53.5216 37.9647 53.7458 38.2804 53.8888 38.4124C54.0739 38.6419 54.4685 39.4169 54.5662 40.6808C54.6638 41.3176 55.0544 41.3176 55.7744 41.2932C56.4945 41.2687 57.9712 41.4145 59.6649 38.0515C61.0198 35.3611 63.4246 27.2394 64.4576 23.5148C64.6249 22.9962 65.2317 21.9592 66.3204 21.9592V20.8407C65.452 20.9361 63.3212 21.0696 61.7451 20.8407V21.9592C62.1383 21.961 62.9246 22.1195 62.9246 22.7396C62.9246 23.8003 61.6868 27.3995 61.0679 29.3418L58.8444 23.1054C58.7351 22.7233 58.7424 21.9592 59.6464 21.9592H60.2478V20.8407C58.7169 21.0022 54.8653 21.0696 53.2893 20.8407V21.9592C53.7134 21.9877 54.66 22.2568 55.0536 23.1054C55.4473 23.954 58.1708 30.9542 59.4834 34.3483C59.5005 34.7099 59.0372 35.8982 58.1619 37.4308C57.2867 38.9635 56.4115 38.5674 55.9482 38.5502C55.4848 38.533 54.6096 37.758 54.4895 37.5342C54.3693 37.3103 54.0776 37.4997 53.7687 37.758Z" fill="#474752"/>
<path d="M5.89516 34.4484C5.33533 34.9412 4.18912 35.3074 3.62398 35.4453C3.60068 35.451 3.57836 35.4563 3.55711 35.4612V35.5307V35.851V35.9425C3.58515 35.9394 3.61253 35.9368 3.63926 35.9345C4.30089 35.8782 4.56607 36.049 4.58564 36.3077C4.66186 37.3148 4.58564 40.1448 4.50942 40.6437C4.42396 41.2031 3.89872 41.2561 3.57866 41.2884C3.57866 41.2884 3.55711 41.2869 3.55711 41.3141C3.55711 41.3414 3.55711 41.7118 3.55711 41.7118C3.55711 41.7118 3.55598 41.7336 3.56941 41.752C3.58285 41.7704 3.59913 41.775 3.62069 41.7699C4.64458 41.6705 5.91421 41.6705 6.85825 41.7726C6.87269 41.7741 6.88373 41.7764 6.90066 41.7778C6.96166 41.7857 6.95584 41.7281 6.95584 41.7281V41.6705V41.3289C6.95584 41.2905 6.9334 41.2899 6.91187 41.2899C6.27171 41.2705 6.2238 40.8272 6.20734 40.6437V37.3787C6.20734 36.6485 6.75663 35.9425 7.41945 35.9425C8.17545 35.9425 8.08648 36.7785 8.08648 36.7785V40.6437C8.08648 40.8545 7.94022 41.2711 7.36181 41.2899C7.33579 41.2907 7.32091 41.3039 7.32091 41.3346V41.7411C7.32091 41.7778 7.33348 41.7841 7.37034 41.7802C8.35692 41.6736 9.92598 41.7063 10.664 41.7816C10.6881 41.7857 10.7027 41.7719 10.7027 41.743V41.3286C10.7027 41.2985 10.6929 41.29 10.664 41.29C10.0838 41.2722 9.93714 40.8547 9.93714 40.6437V37.3787C9.93714 36.6485 10.4864 35.9425 11.1492 35.9425C11.9053 35.9425 11.8163 36.7785 11.8163 36.7785V40.5597C11.8163 41.0544 11.4621 41.2003 11.1878 41.276C11.1693 41.2812 11.1334 41.2881 11.1334 41.3429V41.7122C11.1334 41.7826 11.1742 41.7776 11.1952 41.7738C12.1361 41.6027 13.7399 41.7041 14.476 41.7815C14.5018 41.7842 14.5152 41.7735 14.5152 41.7429V41.3312C14.5152 41.2903 14.4889 41.2858 14.476 41.2833C13.8522 41.1621 13.6201 40.864 13.5821 40.7275C13.3466 39.7991 13.5821 36.3389 13.498 36.0351C13.4038 34.7253 12.4944 34.4316 12.0515 34.4484C11.345 34.4484 10.6385 35.0899 9.83116 35.7313C9.52839 34.6847 8.78828 34.3472 8.13229 34.4484C7.61359 34.5285 6.7474 35.2249 6.29885 35.6131V34.8198C6.29885 34.4822 6.11382 34.4484 5.89516 34.4484Z" fill="#474752"/>
<path d="M14.6974 43.2361C14.572 43.3409 14.6858 43.5012 14.7584 43.5682C14.8523 43.6847 15.0526 44.078 15.1022 44.7195C15.1517 45.0427 15.3499 45.0427 15.7154 45.0303C16.0808 45.0178 16.8303 45.0919 17.6899 43.385C18.3776 42.0195 19.5981 37.8974 20.1224 36.007C20.2039 35.7545 20.4908 35.2596 21.0022 35.22C21.0237 35.2184 21.0456 35.2175 21.0679 35.2175V34.6498C21.0473 34.6521 21.0254 34.6544 21.0022 34.6567C20.5396 34.7029 19.5621 34.7576 18.8071 34.6583C18.7865 34.6556 18.766 34.6528 18.7458 34.6498V35.2175C18.7694 35.2176 18.7959 35.2189 18.8242 35.2215C19.0343 35.2408 19.3444 35.3362 19.3444 35.6136C19.3444 36.152 18.7162 37.9787 18.402 38.9645L17.2735 35.7992C17.218 35.6053 17.2217 35.2175 17.6805 35.2175H17.9246C17.9246 35.2175 17.9858 35.2298 17.9858 35.1689C17.9858 35.1081 17.9858 34.7063 17.9858 34.7063C17.9858 34.6498 17.9458 34.6539 17.9246 34.6559C17.1374 34.7309 15.3557 34.7611 14.5342 34.6605C14.5064 34.6571 14.4541 34.6323 14.4541 34.7278V35.1481C14.4541 35.2255 14.4988 35.2215 14.5245 35.2255C14.7608 35.2616 15.1693 35.4108 15.3496 35.7992C15.5493 36.2299 16.9316 39.7829 17.5978 41.5055C17.6065 41.689 17.3714 42.2921 16.9271 43.07C16.4829 43.8479 16.0387 43.6469 15.8036 43.6381C15.5684 43.6294 15.1242 43.2361 15.0632 43.1224C15.0022 43.0088 14.8542 43.1049 14.6974 43.2361Z" fill="#474752"/>
<path fill-rule="evenodd" clip-rule="evenodd" d="M17.0475 25.8241H23.2528L24.3958 24.8136C24.6045 23.1477 23.9549 19.8158 19.6875 19.8158C16.0405 19.8158 13.4278 23.0111 13.5911 28.2002C13.6909 30.1393 14.8866 34.0176 18.871 34.0176C21.5382 34.0176 23.6066 31.8325 24.3958 30.9313L23.661 30.03C23.1167 30.5216 21.6688 31.5048 20.2318 31.5048C18.4355 31.5048 16.8026 28.6918 17.0475 25.8241ZM21.0734 24.2272L17.1883 24.4209C17.1414 23.299 17.7446 21.365 19.1165 21.365C20.4885 21.365 21.1123 23.3237 21.0734 24.2272Z" fill="#474752"/>
<path d="M22.043 35.0457C22.0407 35.0643 22.0383 35.0861 22.0357 35.1108C22.0026 35.4284 21.9484 36.2424 21.9467 37.4706C21.9467 37.4909 21.9466 37.5114 21.9466 37.5319H22.3733C22.3733 37.5115 22.3734 37.4911 22.3735 37.4706C22.3773 36.4385 22.4852 35.3495 23.5433 35.3495C23.7544 35.3409 24.1938 35.5112 24.2453 35.8882C24.3141 36.3916 24.4105 38.6231 24.2453 40.8469C24.1509 41.199 23.9426 41.3121 23.1772 41.3164C23.1618 41.3165 23.1462 41.3166 23.1304 41.3166V41.6757H23.1772H24.6445H26.1084H26.1586V41.3166C26.1416 41.3166 26.1249 41.3165 26.1084 41.3164C25.3457 41.3118 25.138 41.1985 25.0437 40.8469C24.8785 38.6231 24.9748 36.3916 25.0437 35.8882C25.0952 35.5112 25.5346 35.3409 25.7457 35.3495C26.797 35.3495 26.9103 36.4246 26.9155 37.4506C26.9156 37.4778 26.9156 37.5049 26.9156 37.5319H27.3423C27.3423 37.5046 27.3423 37.4775 27.3423 37.4506C27.34 36.231 27.286 35.4233 27.2531 35.1088C27.2506 35.0849 27.2482 35.0638 27.246 35.0457H24.6445H22.043Z" fill="#474752"/>
<path fill-rule="evenodd" clip-rule="evenodd" d="M27.9448 35.0457V35.3495C27.9638 35.3505 27.9838 35.3519 28.0046 35.3537C28.3861 35.3879 29.0468 35.5828 29.0468 36.1447V40.8469C29.0468 41.1144 28.7472 41.4232 27.9506 41.414C27.9316 41.4138 27.9124 41.4134 27.8928 41.4129V41.6757H27.9506H30.9726H31.0323V41.4129C31.0121 41.4135 30.9922 41.4139 30.9726 41.4141C30.1774 41.4226 29.8784 41.1142 29.8784 40.8469V38.5441H31.0323C31.2784 38.6345 31.7704 39.0239 31.7704 39.8585C31.7704 40.9017 31.8952 41.924 32.8308 41.924C34.0837 42.0052 33.6772 40.9898 33.9639 40.0045C33.0267 39.9109 33.5958 41.1167 33.0899 41.1167C32.9474 41.112 32.6792 40.8537 32.7466 39.8585C32.814 38.8633 31.9857 38.3727 31.5631 38.2519C32.1476 38.2257 33.3167 37.8606 33.3167 36.6095C33.3167 35.3584 32.2859 35.0457 31.7704 35.0457H28.0046H27.9448ZM29.8784 37.8551V35.5535C30.6693 35.4452 32.2509 35.2286 32.2509 36.8261C32.2509 38.1042 30.6693 38.0446 29.8784 37.8551Z" fill="#474752"/>
<path fill-rule="evenodd" clip-rule="evenodd" d="M37.0269 34.8225L37.0578 34.8978L39.4823 40.8064C39.5722 40.9914 39.8115 41.3615 40.0489 41.3615H40.3175H40.3727V41.6864H40.3175H37.6964H37.6475V41.3615C37.6631 41.3619 37.6795 41.3622 37.6964 41.3623C38.0331 41.3645 38.5873 41.29 38.4435 40.671C38.1844 40.021 38.0297 39.624 37.9847 39.5067H35.7047L35.2325 40.8064C35.1449 41.0175 35.1589 41.3442 35.8883 41.3608C35.9075 41.3613 35.9273 41.3615 35.9476 41.3615V41.6864H35.8883H34.0089H33.9639V41.3615C33.979 41.3615 33.994 41.3614 34.0089 41.3611C34.2751 41.3555 34.5187 41.2866 34.7333 40.671C34.9567 40.0306 36.3159 36.6042 36.9968 34.8978C37.007 34.8723 37.017 34.8472 37.0269 34.8225ZM37.9847 39.06L36.8245 36.4606L35.7857 39.06H37.9847Z" fill="#474752"/>
<path fill-rule="evenodd" clip-rule="evenodd" d="M40.5943 35.0281V35.2963C40.6111 35.2966 40.6288 35.2973 40.6473 35.2986C40.959 35.3199 41.4925 35.4922 41.4925 36.0545V40.671C41.4919 40.8938 41.3227 41.3322 40.6616 41.3601C40.6397 41.361 40.6173 41.3615 40.5943 41.3615V41.6864H40.6616H44.2248C44.969 41.551 46.4573 40.755 46.4573 38.3831C46.4573 36.0111 44.969 35.1581 44.2248 35.0281H40.6473H40.5943ZM42.3694 40.9824V35.5806C42.3694 35.5806 42.7202 35.4317 43.4218 35.4317C44.4934 35.4317 45.5399 36.2575 45.5399 38.4914C45.5399 40.7252 44.2248 41.3615 43.4218 41.3615C42.7793 41.3615 42.4525 41.1088 42.3694 40.9824Z" fill="#474752"/>
<path d="M47.2381 35.0281V35.2963C47.5402 35.3179 48.1445 35.5196 48.1445 36.1533V40.5099C48.1445 41.1436 47.5402 41.3453 47.2381 41.3669V41.6351H52.2375C52.2911 41.1378 52.3983 39.8733 52.3983 39.2044H52.0474C52.0133 39.8459 51.6498 41.1288 50.4687 41.1288H49.1092V38.6323H49.8255C50.0399 38.6665 50.4687 38.9198 50.4687 39.6591H50.9365V38.2803V36.9014H50.4687C50.4687 37.6407 50.0399 37.894 49.8255 37.9282H49.1092V35.4317H50.4687C51.6498 35.4317 52.0133 36.7146 52.0474 37.3561H52.3983C52.3983 36.6872 52.2911 35.5254 52.2375 35.0281H47.2381Z" fill="#474752"/>
</svg>
